<?xml version="1.0" encoding="utf-8"?>
<!-- Generator: Adobe Illustrator 24.0.1, SVG Export Plug-In . SVG Version: 6.00 Build 0)  -->
<svg version="1.1" id="Layer_1" xmlns="http://www.w3.org/2000/svg" xmlns:xlink="http://www.w3.org/1999/xlink" x="0px" y="0px"
	 viewBox="0 0 86.2 100" style="enable-background:new 0 0 86.2 100;" xml:space="preserve">
<style type="text/css">
	.st0{fill:#f66969;stroke:#FFFFFF;stroke-width:0.25;stroke-miterlimit:10;}
	.st1{fill:#cd3d3d;stroke:#FFFFFF;stroke-width:0.25;stroke-miterlimit:10;}
	.st2{fill:#FFFFFF;stroke:#FFFFFF;stroke-width:0.25;stroke-miterlimit:10;}
	.st3{fill:#cd3d3d;stroke:#FFFFFF;stroke-width:0.25;stroke-miterlimit:10;}
	.st4{fill:#f6e169;stroke:#FFFFFF;stroke-width:0.25;stroke-miterlimit:10;}
</style>
<path class="st0" d="M18,72.8l16.6,6v19.5l-16.6-6V72.8z"/>
<path class="st1" d="M51.3,72.9v19.5l16.8-6.1V66.7L51.3,72.9z"/>
<path class="st2" d="M65.1,77.6c0,1.9-1.4,4-3.2,4.6c0,0,0,0,0,0c-1.8,0.6-3.2-0.4-3.2-2.3c0-1.9,1.4-4,3.2-4.6c0,0,0,0,0,0
	C63.6,74.7,65.1,75.7,65.1,77.6C65.1,77.6,65.1,77.6,65.1,77.6L65.1,77.6z"/>
<path class="st1" d="M34.6,78.9v19.5l16.8-6.1V72.8L34.6,78.9z"/>
<path class="st1" d="M68,47.1v19.5l16.8-6.1V41L68,47.1z"/>
<path class="st0" d="M51.4,21.4l16.6,6l16.8-6.1l-16.6-6L51.4,21.4z"/>
<polygon class="st1" points="68,27.4 68,46.9 84.8,40.8 84.8,21.3 "/>
<polygon class="st3" points="51.3,53.2 51.3,72.7 68.1,66.5 68.1,47 "/>
<path class="st4" d="M51.3,33.5V53l16.8-6.1V27.3L51.3,33.5z"/>
<path class="st0" d="M34.7,7.7l16.6,6l16.8-6.1l-16.6-6L34.7,7.7z"/>
<path class="st1" d="M51.3,13.8v19.5l16.8-6.1V7.6L51.3,13.8z"/>
<path class="st4" d="M34.6,59.2v19.5l16.8-6.1V53.1L34.6,59.2z"/>
<polygon class="st4" points="34.6,39.5 34.6,59 51.5,52.9 51.5,33.4 "/>
<polygon class="st1" points="18,65.3 18,84.8 34.8,78.6 34.8,59.1 "/>
<path class="st0" d="M1.4,59.2l16.6,6v19.5l-16.6-6V59.2z M1.4,39.5l16.6,6l16.8-6.1l-16.6-6L1.4,39.5z"/>
<path class="st1" d="M18,45.6v19.5L34.8,59V39.5L18,45.6z"/>
<path class="st0" d="M1.4,39.5l16.6,6v19.5L1.4,59V39.5z M18,13.8l16.6,6l16.8-6.1l-16.6-6L18,13.8z"/>
<path class="st1" d="M34.6,19.8v19.5l16.8-6.1V13.7L34.6,19.8z"/>
<path class="st0" d="M18,13.8l16.6,6v19.5l-16.6-6V13.8z"/>
<path class="st2" d="M44.2,26.1c0,1.9-1.4,4-3.2,4.6c0,0,0,0,0,0c-1.8,0.7-3.2-0.4-3.2-2.3c0,0,0,0,0,0c0-1.9,1.4-4,3.2-4.6
	c0,0,0,0,0,0C42.7,23.2,44.2,24.2,44.2,26.1C44.2,26.1,44.2,26.1,44.2,26.1z"/>
</svg>
